<svg id="icon-sun" xmlns="http://www.w3.org/2000/svg" width="21" height="21" viewBox="0 0 21 21">
  <path id="sunny-sharp" d="M35.5,26H37.5v4.2H35.5Zm0,16.8H37.5V47H35.5Zm4.749-11.465,2.97-2.97,1.42,1.42-2.97,2.97ZM28.365,43.214l2.97-2.97,1.42,1.42-2.97,2.97ZM42.8,35.5H47V37.5H42.8ZM26,35.5h4.2V37.5H26Zm14.245,6.169,1.42-1.42,2.97,2.97-1.42,1.42Zm-11.88-11.88,1.42-1.42,2.97,2.97-1.42,1.42ZM36.5,41.157A4.657,4.657,0,1,1,41.157,36.5,4.657,4.657,0,0,1,36.5,41.157Z" transform="translate(-26 -26)" fill="#0353a4"/>
</svg>
