<?xml version="1.0" standalone="no"?>
<!DOCTYPE svg PUBLIC "-//W3C//DTD SVG 20010904//EN"
 "http://www.w3.org/TR/2001/REC-SVG-20010904/DTD/svg10.dtd">
<svg version="1.0" xmlns="http://www.w3.org/2000/svg"
 width="700.000000pt" height="700.000000pt" viewBox="0 0 700.000000 700.000000"
 preserveAspectRatio="xMidYMid meet">
<metadata>
Created by potrace 1.14, written by Peter Selinger 2001-2017
</metadata>
<g transform="translate(0.000000,700.000000) scale(0.100000,-0.100000)"
fill="#000000" stroke="none">
<path d="M3427 6734 c-1 -1 -58 -4 -127 -8 -69 -3 -136 -8 -150 -10 -14 -3
-50 -7 -81 -11 -31 -3 -66 -7 -77 -10 -11 -2 -36 -6 -56 -9 -31 -5 -96 -19
-236 -51 -58 -13 -243 -71 -330 -103 -190 -71 -326 -136 -531 -254 -13 -7 -81
-52 -151 -99 -333 -223 -654 -544 -869 -869 -38 -58 -73 -109 -77 -115 -18
-24 -123 -218 -164 -305 -106 -221 -210 -530 -243 -722 -3 -17 -7 -34 -9 -37
-2 -3 -7 -26 -10 -51 -3 -25 -8 -54 -10 -65 -2 -11 -7 -47 -11 -80 -4 -32 -9
-68 -11 -78 -14 -77 -21 -465 -10 -582 3 -27 8 -79 11 -115 23 -265 109 -599
233 -906 74 -182 231 -462 356 -634 140 -191 372 -443 521 -566 33 -27 62 -52
65 -55 3 -3 41 -32 85 -65 215 -162 441 -292 705 -407 92 -40 320 -118 382
-131 13 -3 48 -12 78 -21 63 -17 293 -62 360 -69 25 -3 68 -8 95 -11 178 -20
443 -20 655 0 138 13 381 56 495 89 6 1 30 8 55 15 257 70 586 214 821 361
590 369 1038 902 1297 1542 127 313 199 629 227 993 6 72 6 360 0 425 -13 147
-22 231 -30 270 -2 13 -7 42 -11 65 -56 385 -252 879 -487 1230 -163 244 -383
493 -596 675 -523 448 -1195 722 -1881 766 -89 6 -279 11 -283 8z"/>
</g>
</svg>
