<?xml version="1.0" standalone="no"?>
<!DOCTYPE svg PUBLIC "-//W3C//DTD SVG 20010904//EN"
 "http://www.w3.org/TR/2001/REC-SVG-20010904/DTD/svg10.dtd">
<svg version="1.0" xmlns="http://www.w3.org/2000/svg"
 width="700.000000pt" height="700.000000pt" viewBox="0 0 700.000000 700.000000"
 preserveAspectRatio="xMidYMid meet">
<metadata>
Created by potrace 1.14, written by Peter Selinger 2001-2017
</metadata>
<g transform="translate(0.000000,700.000000) scale(0.100000,-0.100000)"
fill="#000000" stroke="none">
<path d="M3289 6896 c-2 -2 -42 -6 -89 -10 -137 -10 -281 -31 -422 -62 -15 -3
-31 -6 -35 -6 -5 -1 -46 -11 -93 -24 -498 -131 -953 -366 -1341 -691 -141
-119 -271 -249 -412 -411 -288 -334 -542 -811 -666 -1252 -33 -120 -58 -219
-66 -270 -3 -19 -8 -42 -10 -50 -4 -16 -9 -49 -21 -135 -3 -27 -8 -57 -9 -66
-22 -117 -27 -627 -7 -774 7 -49 15 -110 18 -135 17 -136 72 -373 126 -540 55
-171 92 -264 167 -420 103 -215 190 -359 325 -545 319 -436 737 -791 1216
-1030 238 -120 526 -226 730 -269 14 -3 43 -10 65 -15 62 -15 240 -45 333 -56
219 -26 593 -26 792 0 19 2 51 6 70 9 164 20 416 79 595 138 534 177 1008 477
1395 883 81 86 100 107 179 205 209 259 365 518 494 821 76 179 171 481 191
613 4 21 8 41 10 45 8 12 45 285 53 381 14 180 8 517 -12 670 -2 19 -7 55 -10
80 -25 199 -115 554 -183 720 -6 14 -20 50 -32 80 -296 737 -862 1361 -1573
1734 -360 189 -780 318 -1172 362 -33 3 -69 8 -80 11 -24 5 -521 14 -526 9z"/>
</g>
</svg>
